<svg version="1.2" xmlns="http://www.w3.org/2000/svg" viewBox="0 0 2881 152" width="2881" height="152">
	<title>Ocean 2 edited-svg</title>
	<defs>
		<linearGradient id="g1" x1="-75.2" y1="71.3" x2="1749" y2="71.3" gradientUnits="userSpaceOnUse">
			<stop offset="0" stop-color="#0052d4" stop-opacity=".5"/>
			<stop offset=".5" stop-color="#4364f7" stop-opacity=".5"/>
			<stop offset="1" stop-color="#6fb1fc" stop-opacity=".5"/>
		</linearGradient>
		<linearGradient id="g2" x1="2955.9" y1="71.3" x2="1131.6" y2="71.3" gradientUnits="userSpaceOnUse">
			<stop offset="0" stop-color="#0052d4" stop-opacity=".5"/>
			<stop offset=".5" stop-color="#4364f7" stop-opacity=".5"/>
			<stop offset="1" stop-color="#6fb1fc" stop-opacity=".5"/>
		</linearGradient>
	</defs>
	<style>
		.s0 { opacity: 0;fill: #ffffff } 
		.s1 { fill: url(#g1) } 
		.s2 { fill: url(#g2) } 
	</style>
	<path id="Layer" class="s0" d="m-115-2726h3000v3000h-3000z"/>
	<g id="721761">
		<path id="Layer" class="s1" d="m0.3 27.4l48.4-10.1c76.4-15.9 155.4-13.8 230.8 6.3l37.2 9.9c67.1 17.8 138 16.3 204.3-4.6 67.3-21.1 139.3-22.4 207.3-3.7l49.9 13.7c52.7 14.5 107.5 20.3 162 17.1l87.6-5.2c31.3-1.8 62.3-6.6 92.7-14.3l34.5-8.7c81.6-20.5 167-20.1 248.4 1.1l36.9 9.6v109.1l-1440 4.4z"/>
	</g>
	<g id="663799">
		<path id="Layer" class="s2" d="m2880.3 152l-1440-4.4v-109.1l37-9.6c81.4-21.2 166.8-21.6 248.4-1.1l34.4 8.7c30.4 7.7 61.5 12.5 92.8 14.3l87.5 5.2c54.6 3.2 109.3-2.6 162.1-17.1l49.9-13.7c68-18.7 140-17.4 207.3 3.7 66.3 20.9 137.1 22.4 204.3 4.6l37.2-9.9c75.4-20.1 154.4-22.2 230.7-6.3l48.4 10.1z"/>
	</g>
</svg>