<svg width="1439" height="146" viewBox="0 0 1439 146" fill="none" xmlns="http://www.w3.org/2000/svg">
<path d="M-1 0.00195312L97.0261 20.3944C158.266 33.1343 221.553 32.3175 282.444 18.0013C333.059 6.10103 385.417 3.50843 436.96 10.3501L475.714 15.4942C520.366 21.4213 565.615 21.2873 610.232 15.0958L636.298 11.4786C691.011 3.88604 746.63 5.92342 800.641 17.4986C866.779 31.6729 935.187 31.5156 1001.26 17.0372L1003.18 16.6172C1053.4 5.61109 1105.07 2.70159 1156.21 7.99877L1207.13 13.2728C1241.29 16.8103 1275.71 16.82 1309.87 13.302L1439 0.00195312V148.002H-1V0.00195312Z" fill="url(#paint0_linear_3181_11)" fill-opacity="0.8"/>
<path d="M-1 0.00195312L97.0261 20.3944C158.266 33.1343 221.553 32.3175 282.444 18.0013C333.059 6.10103 385.417 3.50843 436.96 10.3501L475.714 15.4942C520.366 21.4213 565.615 21.2873 610.232 15.0958L636.298 11.4786C691.011 3.88604 746.63 5.92342 800.641 17.4986C866.779 31.6729 935.187 31.5156 1001.26 17.0372L1003.18 16.6172C1053.4 5.61109 1105.07 2.70159 1156.21 7.99877L1207.13 13.2728C1241.29 16.8103 1275.71 16.82 1309.87 13.302L1439 0.00195312V148.002H-1V0.00195312Z" fill="url(#paint1_linear_3181_11)"/>
<defs>
<linearGradient id="paint0_linear_3181_11" x1="-1" y1="74.002" x2="1439" y2="74.002" gradientUnits="userSpaceOnUse">
<stop stop-color="#0052D4"/>
<stop offset="0.5" stop-color="#4364F7"/>
<stop offset="1" stop-color="#6FB1FC"/>
</linearGradient>
<linearGradient id="paint1_linear_3181_11" x1="-1" y1="74.0002" x2="1439" y2="74.0003" gradientUnits="userSpaceOnUse">
<stop stop-color="#004E84"/>
<stop offset="1" stop-color="#01ADEB"/>
</linearGradient>
</defs>
</svg>
