<svg width="1439" height="146" viewBox="0 0 1439 146" fill="none" xmlns="http://www.w3.org/2000/svg">
<path d="M-1 21.3918L47.4195 11.2698C123.756 -4.68821 202.768 -2.55062 278.13 17.5114L315.327 27.4135C382.493 45.2938 453.358 43.7233 519.666 22.8849C586.959 1.73687 658.923 0.439798 726.934 19.1491L776.877 32.8878C829.591 47.389 884.327 53.1463 938.905 49.9305L1026.47 44.7712C1057.75 42.9278 1088.8 38.1471 1119.19 30.492L1153.68 21.8038C1235.24 1.25959 1320.67 1.6223 1402.05 22.8584L1439 32.5V141.514L-1 146V21.3918Z" fill="url(#paint0_linear_3181_6)" fill-opacity="0.5"/>
<defs>
<linearGradient id="paint0_linear_3181_6" x1="-76.5525" y1="65.2539" x2="1747.71" y2="65.2539" gradientUnits="userSpaceOnUse">
<stop stop-color="#0052D4"/>
<stop offset="0.5" stop-color="#4364F7"/>
<stop offset="1" stop-color="#6FB1FC"/>
</linearGradient>
</defs>
</svg>
