<svg width="1439" height="150" viewBox="0 0 1439 150" fill="none" xmlns="http://www.w3.org/2000/svg">
<path d="M-1 40.5L96.9977 15.6774C156.724 0.548723 219.551 3.00465 277.914 22.7495L307.771 32.8503C360.523 50.6967 417.909 49.1541 469.626 28.4993C522.098 7.54297 580.378 6.27052 633.715 24.9167L652.144 31.3592C706.048 50.2039 764.813 49.815 818.463 30.2586C865.386 13.1544 916.388 10.6569 964.758 23.0948L992.746 30.2918C1051.44 45.3848 1113.39 41.7342 1169.9 19.8515C1220.3 0.33828 1275.14 -4.72345 1328.26 5.23592L1439 26V152H-1V40.5Z" fill="url(#paint0_linear_3181_9)"/>
<defs>
<linearGradient id="paint0_linear_3181_9" x1="-1" y1="71" x2="1439" y2="71" gradientUnits="userSpaceOnUse">
<stop stop-color="#0052D4"/>
<stop offset="0.5" stop-color="#4364F7"/>
<stop offset="1" stop-color="#6FB1FC"/>
</linearGradient>
</defs>
</svg>
